<?xml version="1.0" encoding="utf-8"?>
<!-- Generator: Adobe Illustrator 16.0.0, SVG Export Plug-In . SVG Version: 6.00 Build 0)  -->
<!DOCTYPE svg PUBLIC "-//W3C//DTD SVG 1.1//EN" "http://www.w3.org/Graphics/SVG/1.1/DTD/svg11.dtd">
<svg version="1.1"
	 id="svg1" xmlns:dc="http://purl.org/dc/elements/1.1/" xmlns:rdf="http://www.w3.org/1999/02/22-rdf-syntax-ns#" xmlns:cc="http://creativecommons.org/ns#"
	 xmlns="http://www.w3.org/2000/svg" xmlns:xlink="http://www.w3.org/1999/xlink" x="0px" y="0px" width="640px" height="480px"
	 viewBox="0 0 640 480" enable-background="new 0 0 640 480" xml:space="preserve">
<g>
	<g display="none">
		<defs>
			<rect id="SVGID_1_" width="640.003" height="480"/>
		</defs>
		<clipPath id="SVGID_2_" display="inline">
			<use xlink:href="#SVGID_1_"  overflow="visible"/>
		</clipPath>
	</g>
	<g>
		<defs>
			<rect id="SVGID_3_" x="-0.25" y="-0.188" width="640" height="480"/>
		</defs>
		<clipPath id="SVGID_4_">
			<use xlink:href="#SVGID_3_"  overflow="visible"/>
		</clipPath>
		<g id="flag" transform="matrix(.93750 0 0 .93750 80 .0000026825)" clip-path="url(#SVGID_4_)">
			<g id="g578" transform="matrix(17.067 0 0 17.067 -256 -0.0000024)">
				<rect id="rect124" x="0" y="0" fill="#000066" width="60" height="30"/>
				<g id="g584">
					<path id="path146" fill="#FFFFFF" d="M0,0v3.354L53.292,30H60v-3.354L6.708,0H0L0,0z M60,0v3.354L6.708,30H0v-3.354L53.292,0
						H60z"/>
					<path id="path136" fill="#FFFFFF" d="M25,0v30h10V0H25z M0,10v10h60V10H0z"/>
					<path id="path141" fill="#CC0000" d="M0,12v6h60v-6H0z M27,0v30h6V0H27z"/>
					<path id="path150" fill="#CC0000" d="M0,30l20-10h4.472l-20,10H0z M0,0l20,10h-4.472L0,2.236V0z M35.528,10l20-10H60L40,10
						H35.528z M60,30L40,20h4.472L60,27.764V30z"/>
				</g>
			</g>
		</g>
	</g>
</g>
</svg>
