<?xml version="1.0" encoding="utf-8"?>
<!-- Generator: Adobe Illustrator 19.1.0, SVG Export Plug-In . SVG Version: 6.00 Build 0)  -->
<!DOCTYPE svg PUBLIC "-//W3C//DTD SVG 1.1//EN" "http://www.w3.org/Graphics/SVG/1.1/DTD/svg11.dtd">
<svg version="1.1" id="ic" xmlns="http://www.w3.org/2000/svg" xmlns:xlink="http://www.w3.org/1999/xlink" x="0px" y="0px"
	 width="465px" height="465px" viewBox="0 0 465 465" enable-background="new 0 0 465 465" xml:space="preserve">
<g>
	<path d="M170.4398956,260.5241699c0-3.1881409-0.8115692-5.4625854-2.4313507-6.8162689
		c-1.6265564-1.3574219-3.8907776-2.0359192-6.8199921-2.0359192h-11.5292053v18.0352936h11.5292053
		c2.9292145,0,5.1934357-0.7363586,6.8199921-2.2028503C169.6283264,266.0350342,170.4398956,263.7093811,170.4398956,260.5241699z"
		/>
	<path d="M222.7765808,251.6719818h-11.822464v39.9788361h11.822464c6.0459137,0,10.2640839-2.9770813,12.6544952-8.9341736
		c1.2992096-3.2701416,1.9505463-7.1609192,1.9505463-11.6794128c0-6.23349-0.9718628-11.0175781-2.9292145-14.359314
		C232.4951019,253.3428497,228.6042633,251.6719818,222.7765808,251.6719818z"/>
	<path d="M286.9254761,73.8199997H123.2455139v136.3999939H96.1735077V332.980011h27.0719757v68.1999817h245.519989v-245.519989
		L286.9254761,73.8199997z M149.6627808,302.2900085h-12.7192993v-61.2572174h26.3081512
		c6.0595551,0,10.894928,1.5788727,14.4993286,4.736618c3.6111755,3.161087,5.4082489,8.0475616,5.4082489,14.6731567
		c0,7.229187-1.7902832,12.3408508-5.3809967,15.3345947c-3.5838928,2.9941711-8.6988831,4.4877014-15.3586273,4.4877014h-12.753418
		v22.0251465H149.6627808z M341.5127563,373.9274597H150.5527802V332.980011h190.9599762V373.9274597z M198.5280457,302.2900085
		v-61.2572174h26.4138641c3.7953491,0.0545349,6.9598083,0.4978485,9.4832306,1.3299561
		c4.2965851,1.4115295,7.7713623,4.0031738,10.4380188,7.7711487c2.1312561,3.0486908,3.5907135,6.3392181,4.3613739,9.8890839
		c0.780899,3.5465393,1.1662445,6.9223938,1.1662445,10.1413269c0,8.146637-1.6333923,15.0448914-4.903595,20.6951904
		c-4.4364319,7.6217346-11.2802734,11.4305115-20.5452728,11.4305115H198.5280457z M304.95755,265.9700928v10.6391907h-27.1401367
		v25.6807251h-12.7159119v-61.171875h43.6786499v10.7619781h-30.962738v14.0899811H304.95755z M341.5127563,210.2200012H150.5527802
		V101.1274719h122.7463226v68.2099915h68.2136536V210.2200012z"/>
</g>
</svg>
